<svg width="49" height="49" viewBox="0 0 49 49" fill="none" xmlns="http://www.w3.org/2000/svg">
<path d="M41.5077 8.63177C38.3358 7.14774 34.9443 6.0692 31.3986 5.45508C30.9631 6.24237 30.4544 7.30129 30.1036 8.14365C26.3344 7.57681 22.5999 7.57681 18.9 8.14365C18.5493 7.30129 18.029 6.24237 17.5897 5.45508C14.0401 6.0692 10.6448 7.1517 7.47289 8.63963C1.07523 18.3073 -0.659073 27.7349 0.20808 37.0286C4.45135 40.1974 8.56358 42.1223 12.6064 43.3819C13.6046 42.0081 14.4949 40.5477 15.2618 39.0086C13.8012 38.4536 12.4022 37.7687 11.0803 36.9736C11.431 36.7137 11.774 36.4421 12.1054 36.1626C20.168 39.9337 28.9282 39.9337 36.8944 36.1626C37.2297 36.4421 37.5727 36.7137 37.9196 36.9736C36.5938 37.7726 35.1909 38.4575 33.7303 39.0126C34.4972 40.5478 35.3837 42.0121 36.3857 43.3858C40.4324 42.1262 44.5485 40.2014 48.7917 37.0286C49.8092 26.2548 47.0536 16.9138 41.5077 8.63177ZM16.3602 31.3131C13.9399 31.3131 11.9551 29.0536 11.9551 26.3021C11.9551 23.5506 13.8975 21.2872 16.3602 21.2872C18.823 21.2872 20.8078 23.5466 20.7654 26.3021C20.7692 29.0536 18.823 31.3131 16.3602 31.3131ZM32.6396 31.3131C30.2193 31.3131 28.2344 29.0536 28.2344 26.3021C28.2344 23.5506 30.1768 21.2872 32.6396 21.2872C35.1023 21.2872 37.0871 23.5466 37.0447 26.3021C37.0447 29.0536 35.1023 31.3131 32.6396 31.3131Z" fill="white"/>
</svg>
